Coordinates
version=1
nRows=41
nColumns=38
inDegrees=no

Units are S.I. units (second, meters, Newtons, ...)
If the header above contains a line with 'inDegrees', this indicates whether rotational values are in degrees (yes) or radians (no).

endheader
time	pelvis_tilt	pelvis_list	pelvis_rotation	pelvis_tx	pelvis_ty	pelvis_tz	hip_flexion_r	hip_adduction_r	hip_rotation_r	knee_angle_r	ankle_angle_r	subtalar_angle_r	mtp_angle_r	hip_flexion_l	hip_adduction_l	hip_rotation_l	knee_angle_l	ankle_angle_l	subtalar_angle_l	mtp_angle_l	lumbar_extension	lumbar_bending	lumbar_rotation	arm_flex_r	arm_add_r	arm_rot_r	elbow_flex_r	pro_sup_r	wrist_flex_r	wrist_dev_r	arm_flex_l	arm_add_l	arm_rot_l	elbow_flex_l	pro_sup_l	wrist_flex_l	wrist_dev_l
1.69	-2.1536	1.49241	-2.52851	0.752166	1.0299	1.00509	0.550131	-0.249794	-0.0946935	1.3556	-0.174317	0	0	0.110793	0.0883064	-0.198437	0.36151	0.127825	0	0	-0.238272	-0.0924943	0.0418499	-0.0433333	-0.228991	0.154881	0.403343	1.31735	0	0	0.23267	-0.156371	0.02487	0	1.5708	0	0
1.7	-2.19993	1.49512	-2.47654	0.75141	1.03826	1.00571	0.557714	-0.247473	-0.104082	1.32828	-0.159422	0	0	0.0959593	0.0851926	-0.19285	0.353607	0.133048	0	0	-0.243769	-0.0872876	0.0373147	-0.0375506	-0.230847	0.162277	0.401145	1.31007	0	0	0.236631	-0.155369	0.0289986	0	1.5708	0	0
1.71	-2.2424	1.49709	-2.42916	0.750676	1.04661	1.00628	0.563798	-0.2456	-0.113074	1.29771	-0.142852	0	0	0.0808247	0.0829998	-0.186878	0.34473	0.137319	0	0	-0.24928	-0.0828629	0.0334867	-0.0315364	-0.232668	0.169624	0.398418	1.30267	0	0	0.24072	-0.154018	0.0321519	0	1.5708	0	0
1.72	-2.29168	1.49858	-2.37567	0.750018	1.05505	1.00682	0.567245	-0.243683	-0.123205	1.2635	-0.126064	0	0	0.0652987	0.0804017	-0.181735	0.337182	0.143107	0	0	-0.255066	-0.0784113	0.0305537	-0.0256821	-0.234326	0.176298	0.395532	1.29459	0	0	0.244538	-0.152415	0.0354509	0.000794505	1.5708	0	0
1.73	-2.33681	1.5	-2.32748	0.749467	1.06354	1.00724	0.569308	-0.241786	-0.134449	1.22609	-0.109242	0	0	0.0503489	0.0775582	-0.178396	0.330898	0.149475	0	0	-0.260289	-0.074217	0.0287882	-0.0198503	-0.235759	0.182152	0.392284	1.28805	0	0	0.247454	-0.150796	0.0396861	0.00370302	1.5708	0	0
1.74	-2.38367	1.50132	-2.27832	0.748984	1.07205	1.00762	0.569477	-0.239856	-0.14715	1.18512	-0.0927348	0	0	0.0350563	0.0748318	-0.174625	0.323323	0.15419	0	0	-0.265541	-0.0699917	0.027506	-0.0130309	-0.237107	0.190766	0.387396	1.27701	0	0	0.248577	-0.149541	0.0493291	0.010294	1.5708	0	0
1.75	-2.42631	1.5032	-2.23374	0.748641	1.08067	1.00785	0.568678	-0.237212	-0.160559	1.14124	-0.0767561	0	0	0.0207695	0.0717597	-0.170236	0.315921	0.158374	0	0	-0.269709	-0.0657977	0.0266831	-0.00629903	-0.23794	0.198572	0.38171	1.26813	0	0	0.249019	-0.148676	0.0605306	0.017453	1.5708	0	0
1.76	-2.4652	1.5053	-2.19247	0.74834	1.08932	1.00793	0.566411	-0.235055	-0.17657	1.09456	-0.0623485	0	0	0.00743997	0.0687293	-0.164146	0.309415	0.161925	0	0	-0.273447	-0.0616178	0.0254931	0.000665452	-0.238526	0.206694	0.375071	1.26079	0	0	0.249523	-0.148103	0.0719407	0.0244325	1.5708	0	0
1.77	-2.50521	1.50742	-2.15047	0.748091	1.098	1.00787	0.562518	-0.232827	-0.194586	1.04539	-0.0487547	0	0	-0.00532967	0.0654988	-0.159614	0.303369	0.16649	0	0	-0.277232	-0.0574123	0.0246385	0.00761724	-0.238958	0.21319	0.368301	1.25406	0	0	0.250168	-0.147629	0.0823186	0.0312147	1.5708	0	0
1.78	-2.53894	1.51005	-2.11605	0.74798	1.10678	1.00762	0.558427	-0.229843	-0.213028	0.994334	-0.0362934	0	0	-0.0171852	0.0622716	-0.156991	0.297331	0.172063	0	0	-0.280013	-0.0536151	0.0250369	0.0134713	-0.23931	0.216289	0.363054	1.24982	0	0	0.251294	-0.14691	0.0879238	0.0360211	1.5708	0	0
1.79	-2.59343	1.51237	-2.06028	0.747886	1.11567	1.00735	0.551339	-0.226508	-0.235588	0.940676	-0.0258418	0	0	-0.0299335	0.0580756	-0.153555	0.2911	0.17781	0	0	-0.283595	-0.0486816	0.0249968	0.0182022	-0.240204	0.218668	0.360179	1.24485	0	0	0.252049	-0.146253	0.0944414	0.0411473	1.5708	0	0
1.8	-2.63651	1.51518	-2.01608	0.747893	1.12468	1.00689	0.544196	-0.223194	-0.259888	0.885864	-0.0168852	0	0	-0.0408415	0.0539567	-0.150897	0.286502	0.183817	0	0	-0.285925	-0.0443601	0.0251627	0.0212361	-0.241379	0.219734	0.359985	1.24166	0	0	0.252756	-0.145822	0.0998702	0.0454075	1.5708	0	0
1.81	-2.70527	1.51811	-1.94466	0.747908	1.13377	1.00642	0.534497	-0.218567	-0.287365	0.82849	-0.00934699	0	0	-0.0509119	0.0480469	-0.147043	0.284438	0.190453	0	0	-0.28867	-0.0384805	0.0240666	0.0237168	-0.242685	0.219973	0.361032	1.23922	0	0	0.253272	-0.14557	0.104794	0.0497969	1.5708	0	0
1.82	-2.79937	1.5213	-1.8465	0.74794	1.1429	1.00588	0.52327	-0.212364	-0.317118	0.769347	-0.00259112	0	0	-0.0600832	0.0406923	-0.142803	0.283334	0.197614	0	0	-0.291305	-0.0312363	0.021701	0.0258149	-0.243791	0.219618	0.362529	1.23759	0	0	0.253422	-0.145414	0.109379	0.054575	1.5708	0	0
1.83	-2.9133	1.52438	-1.72737	0.748003	1.15209	1.00526	0.511195	-0.20483	-0.347707	0.709623	0.0048351	0	0	-0.0677022	0.032369	-0.140032	0.28412	0.205026	0	0	-0.29358	-0.0232902	0.0184038	0.0272681	-0.244637	0.218298	0.364469	1.23692	0	0	0.253595	-0.14545	0.114526	0.0590917	1.5708	0	0
1.84	-3.06982	1.52639	-1.56548	0.748278	1.16146	1.00466	0.497288	-0.193881	-0.377385	0.648794	0.0138732	0	0	-0.0748676	0.0222249	-0.136832	0.286887	0.212721	0	0	-0.296013	-0.014199	0.0154508	0.0279076	-0.245225	0.216015	0.366964	1.23695	0	0	0.253464	-0.145891	0.119758	0.0640593	1.5708	0	0
1.85	2.99193	1.52442	-1.33781	0.74874	1.17105	1.00426	0.478214	-0.177415	-0.406929	0.584796	0.0230781	0	0	-0.0837841	0.00807037	-0.134038	0.291601	0.221748	0	0	-0.300697	-0.00182815	0.0127183	0.0277217	-0.246207	0.213034	0.371387	1.23775	0	0	0.252674	-0.146707	0.127414	0.0708605	1.5708	0	0
1.86	2.78322	1.51963	-1.12263	0.749377	1.18082	1.00383	0.457983	-0.157499	-0.432359	0.520441	0.0320374	0	0	-0.0929431	-0.00781357	-0.131558	0.297104	0.231559	0	0	-0.305189	0.0115776	0.0103369	0.0264632	-0.247148	0.209176	0.377179	1.23916	0	0	0.251117	-0.148048	0.138365	0.0785508	1.5708	0	0
1.87	2.66997	1.51482	-1.00093	0.749941	1.1912	1.00305	0.432849	-0.129721	-0.424783	0.442547	0.0363969	0	0	-0.103179	-0.0202508	-0.127218	0.301419	0.240875	0	0	-0.307409	0.0213602	0.00567754	0.0227724	-0.246837	0.204674	0.382716	1.24052	0	0	0.248523	-0.15028	0.147911	0.0844225	1.5708	0	0
1.88	2.5518	1.50833	-0.87535	0.750688	1.20152	1.00235	0.415265	-0.111214	-0.440582	0.388367	0.040321	0	0	-0.112314	-0.03516	-0.125901	0.30729	0.249554	0	0	-0.309685	0.0329765	0.00257123	0.0201626	-0.246353	0.19997	0.386167	1.24266	0	0	0.24638	-0.152011	0.155872	0.0900411	1.5708	0	0
1.89	2.45928	1.50113	-0.776274	0.75162	1.21198	1.00163	0.397503	-0.0916269	-0.452973	0.335863	0.0411386	0	0	-0.121252	-0.0502316	-0.125417	0.313959	0.257607	0	0	-0.311472	0.0442166	0.00074377	0.017549	-0.245086	0.192916	0.387745	1.24894	0	0	0.242988	-0.154498	0.170297	0.0979795	1.5708	0	0
1.9	2.35347	1.48192	-0.664936	0.752931	1.22224	1.00199	0.364445	-0.0548657	-0.459213	0.263912	0.0269531	0	0	-0.134927	-0.0780472	-0.129106	0.322343	0.265218	0	0	-0.321166	0.0667025	0.00291832	0.0180565	-0.245566	0.188008	0.388526	1.25465	0	0	0.241626	-0.155027	0.181794	0.105617	1.5708	0	0
1.91	2.37731	1.48518	-0.682276	0.753727	1.2337	1.00034	0.35996	-0.0537993	-0.459466	0.245743	0.0410135	0	0	-0.143521	-0.0785366	-0.125525	0.327739	0.270355	0	0	-0.316465	0.0633735	-0.00185705	0.0106406	-0.241858	0.18177	0.390126	1.25813	0	0	0.238316	-0.158143	0.185291	0.105275	1.5708	0	0
1.92	2.34653	1.46117	-0.64576	0.755098	1.2445	1.00131	0.309234	-0.00826586	-0.435368	0.154801	0.00987965	0	0	-0.164421	-0.10774	-0.13034	0.335398	0.274394	0	0	-0.331673	0.0866467	0.00111297	0.0103998	-0.242323	0.177504	0.391568	1.26234	0	0	0.238114	-0.157707	0.190403	0.109531	1.5708	0	0
1.93	2.3917	1.46859	-0.687956	0.756118	1.2563	0.999583	0.3196	-0.0216741	-0.451943	0.179418	0.0376709	0	0	-0.17225	-0.102429	-0.128492	0.34213	0.27653	0	0	-0.325077	0.0771796	-0.00168337	0.00138313	-0.238267	0.173256	0.393727	1.26278	0	0	0.233998	-0.160764	0.190249	0.10838	1.5708	0	0
1.94	2.41418	1.46801	-0.707668	0.757185	1.26791	0.99879	0.314619	-0.0209471	-0.463851	0.180671	0.0460757	0	0	-0.182074	-0.105832	-0.127389	0.350714	0.276364	0	0	-0.323414	0.0764871	-0.00211532	-0.00590082	-0.235538	0.167577	0.396331	1.26372	0	0	0.2302	-0.162183	0.189822	0.109076	1.5708	0	0
1.95	2.42169	1.44517	-0.709943	0.75844	1.27978	0.999937	0.265399	0.0159552	-0.443363	0.116272	0.007969	0	0	-0.20652	-0.130548	-0.130887	0.359427	0.275626	0	0	-0.338251	0.0955175	0.000646831	-0.0107885	-0.234022	0.151507	0.400132	1.27834	0	0	0.225987	-0.162484	0.197763	0.115797	1.5708	0	0
1.96	2.44868	1.44227	-0.735736	0.759674	1.29209	0.999316	0.260318	0.0160654	-0.453052	0.132841	0.00717627	0	0	-0.218484	-0.135072	-0.131537	0.370146	0.273474	0	0	-0.337484	0.0955557	0.000695467	-0.0197315	-0.231588	0.147054	0.404124	1.2798	0	0	0.219086	-0.164298	0.196202	0.118061	1.5708	0	0
1.97	2.51687	1.44884	-0.802779	0.760757	1.30506	0.997669	0.277434	-0.0077075	-0.479208	0.200734	0.0285203	0	0	-0.226668	-0.127898	-0.12837	0.382968	0.269726	0	0	-0.33003	0.0841452	-0.00242326	-0.032858	-0.227421	0.140995	0.409729	1.28214	0	0	0.209426	-0.16819	0.195028	0.119965	1.5708	0	0
1.98	2.55686	1.44961	-0.839904	0.761814	1.31778	0.996665	0.278071	-0.0171943	-0.496224	0.234859	0.0279189	0	0	-0.233226	-0.128525	-0.123817	0.399435	0.263127	0	0	-0.325381	0.0806661	-0.00569595	-0.0437499	-0.224379	0.135001	0.414322	1.28582	0	0	0.200085	-0.17123	0.194404	0.122994	1.5708	0	0
1.99	2.59003	1.44767	-0.869221	0.762994	1.33054	0.995891	0.274123	-0.0221656	-0.505945	0.259497	0.0170772	0	0	-0.238563	-0.132422	-0.119295	0.420181	0.255542	0	0	-0.322073	0.0796952	-0.00944749	-0.0541595	-0.22137	0.12939	0.418395	1.29003	0	0	0.190659	-0.174623	0.194596	0.126103	1.5708	0	0
2	2.60143	1.44534	-0.878564	0.76441	1.34299	0.99535	0.27338	-0.0249278	-0.508829	0.284639	-0.00163582	0	0	-0.238624	-0.138601	-0.114718	0.447259	0.245793	0	0	-0.318495	0.0805501	-0.0113282	-0.0630506	-0.21875	0.12422	0.422068	1.29417	0	0	0.181531	-0.177742	0.194892	0.130409	1.5708	0	0
2.01	2.5926	1.44307	-0.870266	0.766083	1.35516	0.995149	0.277522	-0.026962	-0.506366	0.316257	-0.0165433	0	0	-0.232673	-0.146831	-0.111675	0.481527	0.232613	0	0	-0.314298	0.0827538	-0.0106935	-0.0703013	-0.216587	0.11973	0.42521	1.29889	0	0	0.17264	-0.180412	0.195101	0.135738	1.5708	0	0
2.02	2.5698	1.44155	-0.849828	0.767892	1.36711	0.99528	0.285085	-0.028887	-0.501077	0.35204	-0.0217112	0	0	-0.220105	-0.156303	-0.110855	0.523183	0.213907	0	0	-0.308936	0.0855087	-0.00894003	-0.0759894	-0.214797	0.116374	0.428081	1.30415	0	0	0.16321	-0.183016	0.19544	0.142861	1.5708	0	0
2.03	2.52101	1.43665	-0.806016	0.770059	1.37859	0.996055	0.294361	-0.0313852	-0.514116	0.395864	-0.0226504	0	0	-0.202825	-0.171134	-0.112712	0.572009	0.188459	0	0	-0.305784	0.0926994	-0.00460602	-0.078216	-0.213688	0.114848	0.429729	1.30801	0	0	0.154166	-0.185221	0.19475	0.151999	1.5708	0	0
2.04	2.49597	1.43973	-0.783539	0.77192	1.39022	0.996235	0.304174	-0.0362381	-0.51249	0.429661	-0.0228013	0	0	-0.176478	-0.176721	-0.106939	0.626326	0.154711	0	0	-0.296199	0.0918475	-0.00580965	-0.0813656	-0.21076	0.112782	0.430152	1.31312	0	0	0.141967	-0.190205	0.19732	0.164179	1.5708	0	0
2.05	2.46161	1.44095	-0.751107	0.773933	1.40158	0.996531	0.306987	-0.0334618	-0.507935	0.447673	-0.0253129	0	0	-0.146496	-0.183927	-0.0979408	0.68492	0.116619	0	0	-0.287827	0.0928358	-0.00754052	-0.0823333	-0.207161	0.108337	0.427702	1.3241	0	0	0.129318	-0.197387	0.210424	0.179856	1.5708	0	0
2.06	2.43662	1.4428	-0.725555	0.775625	1.41274	0.996678	0.301267	-0.0196269	-0.477701	0.442426	-0.025702	0	0	-0.113421	-0.188687	-0.0852677	0.746228	0.075803	0	0	-0.280133	0.0929665	-0.0119701	-0.083597	-0.204254	0.105734	0.426833	1.33407	0	0	0.119171	-0.204306	0.220728	0.191	1.5708	0	0
2.07	2.37814	1.43742	-0.667942	0.77768	1.42312	0.997259	0.297004	-0.0144356	-0.503218	0.456466	-0.0183538	0	0	-0.0791732	-0.201983	-0.0744	0.808957	0.0346242	0	0	-0.276671	0.101649	-0.0125287	-0.0829145	-0.203569	0.107033	0.427782	1.3364	0	0	0.115426	-0.207734	0.220857	0.193724	1.5708	0	0
2.08	2.40301	1.46658	-0.690026	0.77742	1.43316	0.995236	0.315113	-0.0482903	-0.51244	0.487054	0.00677433	0	0	-0.0272438	-0.167746	-0.0455827	0.872315	-0.00788253	0	0	-0.254437	0.0777344	-0.0239407	-0.0888635	-0.202586	0.107753	0.433698	1.33838	0	0	0.10915	-0.212643	0.222127	0.196431	1.5708	0	0
2.09	2.25566	1.43275	-0.537054	0.780244	1.44282	0.997509	0.287014	0.00662156	-0.51216	0.455122	-0.00439723	0	0	0.00439881	-0.214054	-0.0291275	0.935004	-0.0511983	0	0	-0.262146	0.117665	-0.0223615	-0.0862606	-0.204574	0.110527	0.438256	1.33915	0	0	0.108892	-0.214878	0.232698	0.203283	1.5708	0	0
